<!-- Generated by IcoMoon.io -->
<svg version="1.1" xmlns="http://www.w3.org/2000/svg" width="44" height="32" viewBox="0 0 44 32">
<path fill="#afb1b8" d="M3.309 26.413c0.17 0.192 0.26 0.433 0.255 0.68 0.009 0.161-0.022 0.322-0.091 0.47s-0.172 0.281-0.304 0.388c-0.329 0.228-0.737 0.339-1.149 0.314h-2.020v-4.307h1.979c0.391-0.024 0.778 0.077 1.096 0.286 0.128 0.098 0.229 0.222 0.296 0.362s0.097 0.292 0.088 0.444c0.012 0.238-0.070 0.471-0.23 0.659-0.154 0.171-0.366 0.29-0.602 0.337 0.268 0.045 0.51 0.175 0.683 0.368zM0.94 25.763h0.846c0.192 0.013 0.383-0.038 0.538-0.143 0.063-0.053 0.113-0.118 0.144-0.191s0.044-0.152 0.037-0.23c0.006-0.078-0.007-0.156-0.038-0.229s-0.079-0.138-0.141-0.192c-0.159-0.108-0.356-0.16-0.554-0.145h-0.832v1.13zM2.406 27.414c0.068-0.054 0.121-0.121 0.156-0.197s0.050-0.158 0.044-0.24c0.005-0.083-0.011-0.166-0.046-0.243s-0.090-0.145-0.159-0.199c-0.165-0.112-0.369-0.167-0.575-0.156h-0.887v1.185h0.899c0.202 0.011 0.402-0.042 0.568-0.149z"></path>
<path fill="#afb1b8" d="M7.354 28.265l-1.101-1.683h-0.414v1.683h-0.947v-4.307h1.792c0.452-0.029 0.899 0.102 1.248 0.366 0.251 0.234 0.402 0.542 0.426 0.869s-0.079 0.651-0.293 0.914c-0.221 0.232-0.523 0.387-0.855 0.438l1.172 1.721h-1.030zM5.839 25.994h0.774c0.538 0 0.807-0.217 0.807-0.652 0.005-0.089-0.009-0.178-0.043-0.261s-0.087-0.159-0.154-0.223c-0.17-0.129-0.389-0.192-0.609-0.175h-0.784l0.009 1.311z"></path>
<path fill="#afb1b8" d="M12.529 27.398h-1.887l-0.333 0.867h-0.993l1.733-4.259h1.073l1.726 4.259h-0.993l-0.326-0.867zM12.276 26.745l-0.689-1.818-0.689 1.818h1.379z"></path>
<path fill="#afb1b8" d="M19.007 28.265h-0.94l-2.107-2.929v2.929h-0.938v-4.307h0.938l2.107 2.946v-2.946h0.94v4.307z"></path>
<path fill="#afb1b8" d="M24.37 27.234c-0.194 0.325-0.49 0.59-0.85 0.76-0.409 0.189-0.863 0.282-1.321 0.271h-1.673v-4.307h1.673c0.457-0.011 0.911 0.080 1.321 0.265 0.36 0.166 0.656 0.428 0.85 0.751 0.193 0.35 0.294 0.737 0.294 1.13s-0.101 0.78-0.294 1.13zM23.295 27.13c0.268-0.286 0.416-0.651 0.416-1.028s-0.147-0.742-0.416-1.028c-0.324-0.259-0.747-0.391-1.177-0.366h-0.653v2.788h0.653c0.43 0.025 0.852-0.107 1.177-0.366z"></path>
<path fill="#afb1b8" d="M13.117 0c0 0 12.131 4.194 11.874 10.262v10.264c0 0-12.122-4.196-11.869-10.264l-0.005-10.262z"></path>
<path fill="#afb1b8" d="M35.798 18.123c2.291-1.444 4.941-2.338 7.708-2.601v-3.213c-3.187 1.125-5.891 3.164-7.708 5.814z"></path>
<path fill="#afb1b8" d="M34.422 19.091c1.875-3.457 5.126-6.125 9.084-7.455v-9.258c0 0-17.277 5.974-16.911 14.615v14.613c0 0 0.77-0.267 1.981-0.768 0-0.467 0-0.938 0.055-1.412 0.358-4.012 2.441-7.729 5.791-10.335z"></path>
<path fill="#afb1b8" d="M32.779 24.519c0.091-1.014 0.293-2.016 0.604-2.992-2.086 2.25-3.35 5.043-3.612 7.985-0.025 0.278-0.039 0.555-0.046 0.842 0.981-0.431 2.123-0.97 3.323-1.603-0.306-1.392-0.397-2.816-0.269-4.231z"></path>
<path fill="#afb1b8" d="M33.466 24.572c-0.115 1.28-0.043 2.569 0.214 3.832 4.72-2.586 10.024-6.582 9.819-11.411v-0.421c-3.372 0.345-6.528 1.695-8.981 3.842-0.574 1.33-0.929 2.732-1.052 4.158z"></path>
</svg>
