<!-- Generated by IcoMoon.io -->
<svg version="1.1" xmlns="http://www.w3.org/2000/svg" width="68" height="32" viewBox="0 0 68 32">
<path fill="#afb1b8" d="M34.491 15.012c-0.322-0.429-0.476-0.936-0.44-1.446v-2.097c0-0.643 0.146-1.131 0.437-1.465s0.792-0.501 1.502-0.499c0.667 0 1.141 0.142 1.421 0.427 0.305 0.363 0.454 0.807 0.42 1.254v0.493h-1.193v-0.499c0.004-0.163-0.007-0.327-0.035-0.489-0.017-0.111-0.077-0.213-0.17-0.29-0.123-0.083-0.277-0.124-0.432-0.113-0.163-0.011-0.326 0.032-0.455 0.12-0.104 0.086-0.173 0.198-0.198 0.32-0.034 0.171-0.050 0.345-0.047 0.518v2.545c-0.019 0.245 0.034 0.491 0.153 0.715 0.059 0.076 0.142 0.136 0.238 0.173s0.203 0.052 0.308 0.040c0.153 0.011 0.305-0.031 0.422-0.115 0.097-0.083 0.16-0.192 0.178-0.309 0.028-0.169 0.040-0.339 0.037-0.51v-0.516h1.193v0.471c0.034 0.467-0.111 0.93-0.413 1.318-0.274 0.311-0.741 0.467-1.428 0.467s-1.206-0.166-1.5-0.512z"></path>
<path fill="#afb1b8" d="M39.46 15.033c-0.301-0.326-0.452-0.802-0.452-1.431v-2.206c0-0.623 0.151-1.094 0.452-1.414s0.805-0.479 1.512-0.478c0.702 0 1.203 0.159 1.505 0.478 0.301 0.32 0.455 0.791 0.455 1.414v2.206c0 0.623-0.153 1.101-0.46 1.429s-0.805 0.493-1.5 0.493c-0.694 0-1.208-0.166-1.512-0.491zM41.528 14.504c0.108-0.204 0.157-0.428 0.143-0.653v-2.7c0.014-0.22-0.035-0.44-0.141-0.64-0.060-0.077-0.145-0.138-0.244-0.176s-0.208-0.051-0.315-0.037c-0.107-0.013-0.216 0-0.316 0.038s-0.184 0.098-0.245 0.175c-0.109 0.2-0.158 0.42-0.143 0.64v2.713c-0.015 0.224 0.034 0.449 0.143 0.653 0.070 0.069 0.155 0.124 0.252 0.162s0.201 0.057 0.307 0.057c0.106 0 0.21-0.020 0.307-0.057s0.182-0.093 0.252-0.162v-0.013z"></path>
<path fill="#afb1b8" d="M44.366 9.569h1.285l0.966 4.070 0.988-4.070h1.25l0.126 5.874h-0.924l-0.099-4.082-0.954 4.082h-0.741l-0.988-4.097-0.091 4.097h-0.934l0.116-5.874z"></path>
<path fill="#afb1b8" d="M50.422 9.569h2.001c1.153 0 1.729 0.556 1.729 1.668 0 1.065-0.607 1.597-1.821 1.595h-0.682v2.611h-1.235l0.007-5.874zM52.132 12.079c0.122 0.013 0.246 0.004 0.363-0.028s0.225-0.086 0.316-0.157c0.142-0.198 0.204-0.431 0.178-0.663 0.006-0.179-0.013-0.358-0.059-0.533-0.018-0.058-0.048-0.113-0.091-0.161s-0.096-0.088-0.156-0.118c-0.172-0.071-0.361-0.103-0.551-0.094h-0.479v1.755h0.479z"></path>
<path fill="#afb1b8" d="M55.934 9.569h1.327l1.361 5.874h-1.151l-0.269-1.354h-1.184l-0.277 1.354h-1.169l1.361-5.874zM57.068 13.408l-0.462-2.466-0.462 2.466h0.924z"></path>
<path fill="#afb1b8" d="M59.722 9.569h0.865l1.655 3.351v-3.351h1.025v5.874h-0.823l-1.665-3.498v3.498h-1.060l0.002-5.874z"></path>
<path fill="#afb1b8" d="M65.669 13.203l-1.376-3.626h1.159l0.84 2.329 0.788-2.329h1.134l-1.359 3.626v2.24h-1.186v-2.24z"></path>
<path fill="#afb1b8" d="M36.398 18.011v0.307h-1.008v2.387h-0.423v-2.387h-1.013v-0.307h2.444z"></path>
<path fill="#afb1b8" d="M39.558 20.705h-0.326c-0.033 0.002-0.066-0.007-0.091-0.026-0.025-0.016-0.044-0.037-0.054-0.062l-0.292-0.64h-1.398l-0.292 0.64c-0.008 0.027-0.023 0.052-0.044 0.073-0.026 0.018-0.058 0.027-0.091 0.026h-0.326l1.235-2.694h0.43l1.25 2.683zM37.513 19.705h1.166l-0.494-1.096c-0.036-0.083-0.067-0.168-0.091-0.254-0.017 0.051-0.032 0.1-0.047 0.143l-0.044 0.113-0.489 1.094z"></path>
<path fill="#afb1b8" d="M41.688 20.44c0.077 0.003 0.155 0.003 0.232 0 0.067-0.006 0.133-0.017 0.198-0.032 0.060-0.013 0.12-0.029 0.178-0.049 0.054-0.019 0.109-0.043 0.166-0.066v-0.606h-0.494c-0.012 0.001-0.024-0.001-0.036-0.005s-0.022-0.009-0.031-0.017c-0.008-0.006-0.015-0.014-0.019-0.022s-0.006-0.018-0.006-0.027v-0.207h0.959v1.032c-0.078 0.048-0.161 0.091-0.247 0.128-0.088 0.038-0.18 0.068-0.274 0.092-0.101 0.026-0.204 0.044-0.309 0.055-0.12 0.011-0.24 0.017-0.361 0.017-0.213 0.002-0.425-0.032-0.623-0.1-0.185-0.064-0.353-0.16-0.494-0.282-0.138-0.123-0.246-0.268-0.319-0.427-0.078-0.179-0.116-0.368-0.114-0.559-0.003-0.192 0.035-0.383 0.111-0.563 0.071-0.16 0.18-0.305 0.319-0.427 0.141-0.121 0.309-0.216 0.494-0.279 0.212-0.069 0.436-0.103 0.662-0.1 0.115-0 0.23 0.008 0.343 0.023 0.1 0.014 0.199 0.037 0.294 0.068 0.086 0.028 0.169 0.064 0.247 0.107 0.076 0.042 0.148 0.089 0.215 0.141l-0.119 0.166c-0.009 0.015-0.023 0.028-0.040 0.037s-0.036 0.014-0.056 0.014c-0.027-0.001-0.054-0.008-0.077-0.021-0.037-0.017-0.077-0.038-0.121-0.064-0.053-0.028-0.108-0.053-0.166-0.073-0.074-0.025-0.15-0.045-0.227-0.060-0.103-0.016-0.209-0.024-0.314-0.023-0.163-0.002-0.325 0.024-0.477 0.075-0.138 0.048-0.261 0.12-0.363 0.213-0.102 0.097-0.181 0.211-0.23 0.335-0.11 0.292-0.11 0.606 0 0.898 0.054 0.127 0.138 0.242 0.247 0.339 0.101 0.092 0.224 0.165 0.361 0.213 0.157 0.047 0.324 0.065 0.489 0.053z"></path>
<path fill="#afb1b8" d="M45.626 20.398h1.349v0.307h-1.762v-2.694h0.422l-0.010 2.387z"></path>
<path fill="#afb1b8" d="M48.379 20.705h-0.423v-2.694h0.423v2.694z"></path>
<path fill="#afb1b8" d="M49.95 18.024c0.025 0.012 0.047 0.029 0.064 0.049l1.806 2.031c-0.002-0.032-0.002-0.064 0-0.096 0-0.030 0-0.060 0-0.087v-1.92h0.368v2.705h-0.212c-0.032 0.002-0.063-0.003-0.091-0.015-0.026-0.013-0.048-0.031-0.067-0.051l-1.804-2.029c0 0.032 0 0.062 0 0.092s0 0.058 0 0.083v1.92h-0.353v-2.694h0.22c0.024 0 0.047 0.004 0.069 0.013z"></path>
<path fill="#afb1b8" d="M55.299 18.011v0.297h-1.497v0.889h1.213v0.286h-1.213v0.919h1.497v0.297h-1.932v-2.688h1.932z"></path>
<path fill="#afb1b8" d="M11.027 1.374l18.76 4.599v16.115l-18.76-4.597v-16.117zM9.823 0v18.274l21.164 5.19v-18.271l-21.164-5.192z"></path>
<path fill="#afb1b8" d="M21.166 31.946l-21.166-5.194v-18.272l21.166 5.192v18.274z"></path>
<path fill="#afb1b8" d="M10.174 1.167l18.515 4.541-7.874 6.8-18.518-4.543 7.877-6.798zM9.823 0l-9.823 8.481 21.166 5.192 9.821-8.481-21.164-5.192z"></path>
<path fill="#afb1b8" d="M22.357 30.918l8.63-7.453-8.63-2.118v9.571z"></path>
</svg>
